<svg xmlns="http://www.w3.org/2000/svg" viewBox="0 0 37.29 20.94"><defs><style>.cls-1{fill:#fca315;}.cls-2{fill:#ff8e12;}.cls-3{fill:none;}.cls-4{fill:#fcb138;}.cls-5{fill:#ffc65e;}</style></defs><g id="图层_2" data-name="图层 2"><g id="图层_1-2" data-name="图层 1"><path class="cls-1" d="M19.69,13.15A1.13,1.13,0,0,0,20.83,12V6.57a1.15,1.15,0,1,0-2.29,0V12A1.15,1.15,0,0,0,19.69,13.15Z"/><circle class="cls-1" cx="19.69" cy="15.45" r="1.44"/><rect class="cls-2" x="33.21" y="3.13" width="4.07" height="14.68" rx="2.04"/><path class="cls-3" d="M19.87,18h7.58a1.22,1.22,0,0,0,1-1.85l-3-4.93A23.48,23.48,0,0,1,19.87,18Z"/><path class="cls-2" d="M30.08,0H28.32a23.35,23.35,0,0,1-2.86,11.22l3,4.93a1.22,1.22,0,0,1-1,1.85H19.87a23.16,23.16,0,0,1-4.49,2.94h14.7a1.37,1.37,0,0,0,1.24-1.49v-18A1.37,1.37,0,0,0,30.08,0Z"/><path class="cls-1" d="M20.75,3.56l4.71,7.66A23.35,23.35,0,0,0,28.32,0H21.14A16.12,16.12,0,0,1,20.75,3.56Z"/><path class="cls-1" d="M11.93,18a1.23,1.23,0,0,1-1.06-1.85l.88-1.42A16.84,16.84,0,0,1,8.3,15.88V18h-5V16.16A17.1,17.1,0,0,1,0,15.48v4a1.37,1.37,0,0,0,1.24,1.49H15.38A23.16,23.16,0,0,0,19.87,18Z"/><path class="cls-4" d="M20.74,3.55h0A16.12,16.12,0,0,0,21.14,0H13.8A8.9,8.9,0,0,1,8.3,8.22v7.66a16.84,16.84,0,0,0,3.45-1.15L18.62,3.55A1.22,1.22,0,0,1,20.74,3.55Z"/><path class="cls-4" d="M0,7.41v8.07a17.1,17.1,0,0,0,3.3.68V8.74A8.86,8.86,0,0,1,0,7.41Z"/><path class="cls-5" d="M0,1.49V7.41A8.86,8.86,0,0,0,3.3,8.74V3h5V8.22A8.9,8.9,0,0,0,13.8,0H1.24A1.37,1.37,0,0,0,0,1.49Z"/></g></g></svg>