<svg xmlns="http://www.w3.org/2000/svg" viewBox="0 0 81.46 58.35"><defs><style>.cls-1{fill:#fff;}</style></defs><g id="图层_2" data-name="图层 2"><g id="图层_1-2" data-name="图层 1"><path class="cls-1" d="M5.66,24,18.71,36.79v21.1l0,0-3.93-3.8V37.19l-8.15-8C5.47,28.09,5.39,25.63,5.66,24Z"/><path class="cls-1" d="M3.15,14.15,23.7,34.24v22a2.14,2.14,0,0,1-2.14,2.14h-2V36.42L5.91,23.05v0l-1-1-.09-.09C3.34,20.46,3.06,17.58,3,16.27A16.21,16.21,0,0,1,3.15,14.15Z"/><path class="cls-1" d="M75.8,24c.27,1.59.2,4.07-.93,5.18l-8.16,8V54.05l-3.92,3.8-.06.06V36.79Z"/><path class="cls-1" d="M78.44,16.27c0,1.31-.3,4.19-1.77,5.66L75.56,23,61.85,36.42V58.35h-2a2.16,2.16,0,0,1-2.14-2.14v-22L78.33,14.11C78.4,15,78.44,15.76,78.44,16.27Z"/><path class="cls-1" d="M81.46,0c0,2,0,4,0,6,0,1.2-.18,3.75-1.4,5.25L78.23,13,57.76,33,56,34.75v7.43L43.81,54.07a3.9,3.9,0,0,1-3,1.54h-.11a3.87,3.87,0,0,1-3-1.54L25.5,42.18V34.75h0L23.7,33,3.24,13v0L1.47,11.27C.23,9.76.07,7.2.05,6,0,4,0,2,0,0L30.3,30.62V34.1l9.28,9.39.11.12a1.54,1.54,0,0,0,2.09,0,1.27,1.27,0,0,1,.1-.12l9.29-9.39V30.62Z"/></g></g></svg>