<?xml version="1.0" encoding="utf-8"?>
<!-- Generator: Adobe Illustrator 25.0.1, SVG Export Plug-In . SVG Version: 6.00 Build 0)  -->
<svg version="1.1" id="图层_1" xmlns="http://www.w3.org/2000/svg" xmlns:xlink="http://www.w3.org/1999/xlink" x="0px" y="0px"
	 viewBox="0 0 24 24" style="enable-background:new 0 0 24 24;" xml:space="preserve">
<style type="text/css">
	.st0{fill-rule:evenodd;clip-rule:evenodd;fill:#444444;}
	.st1{fill:none;stroke:#444444;stroke-miterlimit:10;}
	.st2{fill-rule:evenodd;clip-rule:evenodd;fill:#595959;}
	.st3{fill-rule:evenodd;clip-rule:evenodd;fill:#595959;stroke:#595959;}
	.st4{fill:none;stroke:#595959;}
	.st5{fill:none;stroke:#595959;stroke-width:2;}
	.st6{fill-rule:evenodd;clip-rule:evenodd;fill:#32D536;}
	.st7{fill-rule:evenodd;clip-rule:evenodd;fill:#10B967;}
	.st8{fill-rule:evenodd;clip-rule:evenodd;fill:#FC911E;}
	.st9{fill-rule:evenodd;clip-rule:evenodd;fill:#104233;}
	.st10{fill-rule:evenodd;clip-rule:evenodd;fill:#FFB124;}
	.st11{fill-rule:evenodd;clip-rule:evenodd;fill:#FFD966;}
	.st12{fill-rule:evenodd;clip-rule:evenodd;fill:#F0C419;}
	.st13{fill-rule:evenodd;clip-rule:evenodd;fill:#E6E7E8;}
	.st14{fill-rule:evenodd;clip-rule:evenodd;fill:#2C2F38;}
	.st15{fill-rule:evenodd;clip-rule:evenodd;fill:#E8E9EA;}
	.st16{fill-rule:evenodd;clip-rule:evenodd;fill:#2CACD1;}
	.st17{fill-rule:evenodd;clip-rule:evenodd;fill:#FFFFFF;}
	.st18{fill-rule:evenodd;clip-rule:evenodd;fill:#7B2642;}
	.st19{fill:#2E2E2E;}
	.st20{fill:#1F1F1F;}
	.st21{fill:#A6A6A6;}
	.st22{fill:#BDBDBD;}
	.st23{fill:#D9D9D9;}
	.st24{fill:#C9C9C9;}
	.st25{fill:#9C09D3;}
	.st26{fill:#CCCCCC;}
	.st27{fill:#969696;}
	.st28{fill:#FFA561;}
	.st29{enable-background:new    ;}
	.st30{fill:#C57F4B;}
	.st31{fill:#895934;}
	.st32{fill:#DC8E54;}
	.st33{fill:#A2C61E;}
	.st34{fill:#A5A5A5;}
	.st35{fill:#F73E3E;}
	.st36{fill:#F20F0F;}
	.st37{fill:#209593;}
	.st38{fill:#F1EFF3;}
	.st39{fill:#EE8500;}
	.st40{fill:#FBF9FA;}
	.st41{fill:#90B821;}
	.st42{fill:#374148;}
	.st43{fill-rule:evenodd;clip-rule:evenodd;fill:#43454A;}
	.st44{fill-rule:evenodd;clip-rule:evenodd;fill:#7D7F81;}
	.st45{fill-rule:evenodd;clip-rule:evenodd;fill:#898E97;}
	.st46{fill-rule:evenodd;clip-rule:evenodd;fill:#464748;}
	.st47{fill-rule:evenodd;clip-rule:evenodd;fill:#C4C4C4;}
	.st48{fill-rule:evenodd;clip-rule:evenodd;fill:#4C9069;stroke:#FFFFFF;stroke-width:0.1;}
	.st49{fill-rule:evenodd;clip-rule:evenodd;fill:#414243;stroke:#FFFFFF;stroke-width:0.1;}
	.st50{fill-rule:evenodd;clip-rule:evenodd;fill:#FF636B;stroke:#FFFFFF;stroke-width:0.1;}
	.st51{fill-rule:evenodd;clip-rule:evenodd;fill:#4A66B1;stroke:#FFFFFF;stroke-width:0.1;}
	.st52{fill-rule:evenodd;clip-rule:evenodd;fill:#1A1B1D;}
	.st53{fill:url(#SVGID_1_);}
	.st54{fill-rule:evenodd;clip-rule:evenodd;fill:#0B0C0D;}
	.st55{fill:url(#SVGID_2_);}
	.st56{fill:url(#SVGID_3_);}
	.st57{fill:url(#SVGID_4_);}
	.st58{fill:url(#SVGID_5_);}
	.st59{fill:url(#SVGID_6_);}
	.st60{fill:url(#SVGID_7_);}
	.st61{fill:url(#SVGID_8_);}
	.st62{fill:url(#SVGID_9_);}
	.st63{fill:url(#SVGID_10_);}
</style>
<g>
	<path class="st0" d="M19.3,18.1v1h-2v-1h-10v1h-2v-1h-1v-9h2h12h2v9H19.3z M18.3,11.1h-12v5h12V11.1z M9.8,12.1
		c0.8,0,1.5,0.7,1.5,1.5c0,0.8-0.7,1.5-1.5,1.5c-0.8,0-1.5-0.7-1.5-1.5C8.3,12.8,9,12.1,9.8,12.1z M14.8,12.1c0.8,0,1.5,0.7,1.5,1.5
		c0,0.8-0.7,1.5-1.5,1.5c-0.8,0-1.5-0.7-1.5-1.5C13.3,12.8,14,12.1,14.8,12.1z M19.3,7.1h-14c-0.6,0-1-0.4-1-1s0.4-1,1-1h14
		c0.6,0,1,0.4,1,1S19.8,7.1,19.3,7.1z"/>
</g>
</svg>
