<?xml version="1.0" encoding="utf-8"?>
<!-- Generator: Adobe Illustrator 25.0.1, SVG Export Plug-In . SVG Version: 6.00 Build 0)  -->
<svg version="1.1" id="图层_1" xmlns="http://www.w3.org/2000/svg" xmlns:xlink="http://www.w3.org/1999/xlink" x="0px" y="0px"
	 viewBox="0 0 30 30" style="enable-background:new 0 0 30 30;" xml:space="preserve">
<style type="text/css">
	.st0{fill-rule:evenodd;clip-rule:evenodd;fill:#444444;}
	.st1{fill:none;stroke:#444444;stroke-miterlimit:10;}
	.st2{fill-rule:evenodd;clip-rule:evenodd;fill:#595959;}
	.st3{fill-rule:evenodd;clip-rule:evenodd;fill:#595959;stroke:#595959;}
	.st4{fill:none;stroke:#595959;}
	.st5{fill:none;stroke:#595959;stroke-width:2;}
	.st6{fill-rule:evenodd;clip-rule:evenodd;fill:#32D536;}
	.st7{fill-rule:evenodd;clip-rule:evenodd;fill:#10B967;}
	.st8{fill-rule:evenodd;clip-rule:evenodd;fill:#FC911E;}
	.st9{fill-rule:evenodd;clip-rule:evenodd;fill:#104233;}
	.st10{fill-rule:evenodd;clip-rule:evenodd;fill:#FFB124;}
	.st11{fill-rule:evenodd;clip-rule:evenodd;fill:#FFD966;}
	.st12{fill-rule:evenodd;clip-rule:evenodd;fill:#F0C419;}
	.st13{fill-rule:evenodd;clip-rule:evenodd;fill:#E6E7E8;}
	.st14{fill-rule:evenodd;clip-rule:evenodd;fill:#2C2F38;}
	.st15{fill-rule:evenodd;clip-rule:evenodd;fill:#E8E9EA;}
	.st16{fill-rule:evenodd;clip-rule:evenodd;fill:#2CACD1;}
	.st17{fill-rule:evenodd;clip-rule:evenodd;fill:#FFFFFF;}
	.st18{fill-rule:evenodd;clip-rule:evenodd;fill:#7B2642;}
	.st19{fill:#2E2E2E;}
	.st20{fill:#1F1F1F;}
	.st21{fill:#A6A6A6;}
	.st22{fill:#BDBDBD;}
	.st23{fill:#D9D9D9;}
	.st24{fill:#C9C9C9;}
	.st25{fill:#9C09D3;}
	.st26{fill:#CCCCCC;}
	.st27{fill:#969696;}
	.st28{fill:#FFA561;}
	.st29{enable-background:new    ;}
	.st30{fill:#C57F4B;}
	.st31{fill:#895934;}
	.st32{fill:#DC8E54;}
	.st33{fill:#A2C61E;}
	.st34{fill:#A5A5A5;}
	.st35{fill:#F73E3E;}
	.st36{fill:#F20F0F;}
	.st37{fill:#209593;}
	.st38{fill:#F1EFF3;}
	.st39{fill:#EE8500;}
	.st40{fill:#FBF9FA;}
	.st41{fill:#90B821;}
	.st42{fill:#374148;}
	.st43{fill-rule:evenodd;clip-rule:evenodd;fill:#43454A;}
	.st44{fill-rule:evenodd;clip-rule:evenodd;fill:#7D7F81;}
	.st45{fill-rule:evenodd;clip-rule:evenodd;fill:#898E97;}
	.st46{fill-rule:evenodd;clip-rule:evenodd;fill:#464748;}
	.st47{fill-rule:evenodd;clip-rule:evenodd;fill:#C4C4C4;}
	.st48{fill-rule:evenodd;clip-rule:evenodd;fill:#4C9069;stroke:#FFFFFF;stroke-width:0.1;}
	.st49{fill-rule:evenodd;clip-rule:evenodd;fill:#414243;stroke:#FFFFFF;stroke-width:0.1;}
	.st50{fill-rule:evenodd;clip-rule:evenodd;fill:#FF636B;stroke:#FFFFFF;stroke-width:0.1;}
	.st51{fill-rule:evenodd;clip-rule:evenodd;fill:#4A66B1;stroke:#FFFFFF;stroke-width:0.1;}
	.st52{fill-rule:evenodd;clip-rule:evenodd;fill:#1A1B1D;}
	.st53{fill:url(#SVGID_1_);}
	.st54{fill-rule:evenodd;clip-rule:evenodd;fill:#0B0C0D;}
	.st55{fill:url(#SVGID_2_);}
	.st56{fill:url(#SVGID_3_);}
	.st57{fill:url(#SVGID_4_);}
	.st58{fill:url(#SVGID_5_);}
	.st59{fill:url(#SVGID_6_);}
	.st60{fill:url(#SVGID_7_);}
	.st61{fill:url(#SVGID_8_);}
	.st62{fill:url(#SVGID_9_);}
	.st63{fill:url(#SVGID_10_);}
</style>
<path class="st12" d="M26,17.5c-0.2,6.5-5,10.8-11.5,10.8S3,23.1,3,16.6c0-1.1,0.6-2.3,0.9-3.4C4.4,7.6,8.6,3.2,14.4,3.2
	c5.4,0,10.1,3.7,10.6,9C25.5,13.5,26.1,15.7,26,17.5z"/>
<path class="st13" d="M9,5.2c2.9,0,5.2,2.3,5.2,5.2c0,2.9-2.3,5.2-5.2,5.2c-2.9,0-5.2-2.3-5.2-5.2C3.8,7.6,6.1,5.2,9,5.2z"/>
<path class="st14" d="M7.7,7.3c1,0,1.8,0.8,1.8,1.8s-0.8,1.8-1.8,1.8S5.9,10,5.9,9.1S6.7,7.3,7.7,7.3z"/>
<path class="st13" d="M7.6,8.4c0.3,0,0.6,0.3,0.6,0.6S7.9,9.6,7.6,9.6C7.2,9.6,6.9,9.3,6.9,9S7.2,8.4,7.6,8.4z"/>
<path class="st13" d="M18.9,7.1c1.7,0,3,1.3,3,3c0,1.7-1.3,3-3,3c-1.7,0-3-1.3-3-3C15.8,8.5,17.2,7.1,18.9,7.1z"/>
<path class="st14" d="M19.4,9.2c0.7,0,1.2,0.6,1.2,1.2c0,0.7-0.6,1.2-1.2,1.2c-0.7,0-1.2-0.6-1.2-1.2C18.1,9.7,18.7,9.2,19.4,9.2z"
	/>
<path class="st15" d="M19.3,9.9c0.2,0,0.4,0.2,0.4,0.4c0,0.2-0.2,0.4-0.4,0.4c-0.2,0-0.4-0.2-0.4-0.4C18.9,10.1,19.1,9.9,19.3,9.9z"
	/>
<path class="st16" d="M17.5,16.9c0,0,0,2.1,0,2.8c0,0.7,1.8,2,1.9,0c0.2-2.2,0.4-1.8,0.7-1.9c0.5,0,0.7-0.1,0.9,0.7
	c0.1,0.7,0.1,3.3,0.2,3.5c0.3,0.6,1.6,0.7,1.6-0.9s0-6,0-6s-2.6-0.7-3-0.4C19.3,15.2,17.5,16.9,17.5,16.9z"/>
<path class="st17" d="M9.4,19.6v1.2c0,0,0.2,0.4,0.7,0.5c0.5,0.1,1.2,0.2,1.6-0.2c0.4-0.4,0.4-1.6,0.4-1.6H9.4z"/>
<path class="st18" d="M5.1,18.3c0,0-0.1-0.9,1.1-0.4c1.2,0.5,1.6,0.6,2.5,0.7h5.1c0,0,3.9-3.5,6-4c1.5-0.4,2.9-0.4,3.2-0.4
	c0.3,0.1,0.6,0.7,0,0.9c0,0-2-0.1-3,0.4c-1,0.4-4.1,2.6-5.1,3.5c0,0-0.7,0.5-1.9,0.7c0,0-2,0-2.8,0C9.3,19.7,7.6,19.6,5.1,18.3z"/>
</svg>
