<svg id="弹窗" xmlns="http://www.w3.org/2000/svg" width="40" height="54.34" viewBox="0 0 40 54.34">
  <defs>
    <style>
      .cls-1, .cls-2 {
        fill: #5a3092;
      }

      .cls-2, .cls-3 {
        fill-rule: evenodd;
      }

      .cls-3 {
        fill: #fff;
      }
    </style>
  </defs>
  <circle id="椭圆_943" data-name="椭圆 943" class="cls-1" cx="20" cy="20" r="20"/>
  <path id="快捷键" class="cls-2" d="M1561.64,1070.43h3a6.632,6.632,0,0,1-3.38,4.12,7.487,7.487,0,0,1,.69.78,7.435,7.435,0,0,0,3.43-4.37,7.61,7.61,0,0,0,3.6,4.28,10.288,10.288,0,0,1,.78-0.91,6.6,6.6,0,0,1-3.73-3.9h3.79v-0.83h-1.15v-3.73h-2.86c0.01-.62.02-1.31,0.02-2.05h-0.93v2.05h-2.46v0.84h2.45c-0.02,1.28-.07,2.24-0.13,2.89h-3.12v0.83Zm-1.71,4.85h0.88v-8.52a16.71,16.71,0,0,1,1.08,1.49l0.7-.51a16.36,16.36,0,0,0-1.32-1.64l-0.46.3v-2.58h-0.88v11.46Zm7.83-5.68h-2.06c0.05-.69.09-1.65,0.1-2.89h1.96v2.89Zm-9.48-.15c0.3,0.07.57,0.13,0.78,0.19,0.23-1.06.4-2.06,0.52-3l-0.78-.12c-0.16,1.15-.33,2.12-0.52,2.93h0Zm17.18,1.42h2.68v3.11a3.239,3.239,0,0,1-1.9-1.09,5.619,5.619,0,0,0,.31-1.52l-0.85-.08a4.019,4.019,0,0,1-1.92,3.35c0.22,0.24.42,0.47,0.59,0.69a5.178,5.178,0,0,0,1.53-1.68,3.88,3.88,0,0,0,3.1,1.25c1.01,0.02,2.22.03,3.63,0.02,0.11-.28.23-0.57,0.36-0.88-1.43.05-2.75,0.06-3.96,0.04v-1.3h3.08v-0.77h-3.08v-1.14h1.92v0.32h0.87v-2.08h1.12v-0.76h-1.12v-1.75h-2.79v-1.01h3.41v-0.76h-3.41v-1.09h-0.89v1.09h-3.15v0.76h3.15v1.01h-2.68v0.76h2.68v0.99h-3.06v0.76h3.06v0.99h-2.68v0.77Zm-4.08.05c0.46-.16.91-0.33,1.35-0.49v3.31a0.409,0.409,0,0,1-.44.49,9.3,9.3,0,0,1-1.06-.07c0.05,0.32.1,0.64,0.15,0.97,0.43,0.01.83,0.01,1.2-.01a1.054,1.054,0,0,0,1.04-1.27v-3.75c0.42-.15.83-0.3,1.24-0.45-0.01-.24-0.01-0.55-0.02-0.93-0.42.16-.83,0.31-1.22,0.45v-2.41h1.31v-0.79h-1.31v-2.18h-0.89v2.18h-1.37v0.79h1.37v2.71c-0.52.17-1.01,0.33-1.48,0.47Zm7.65-1.81h1.92v0.99h-1.92v-0.99Zm1.92-.76h-1.92v-0.99h1.92v0.99Zm11.18-2.8v0.98h-2.16v0.68h2.16v1h-1.6v0.68h1.6v1.04h-1.8v0.68h1.8v1.06h-2.04v0.68h2.04v1.34h0.8v-1.34h2.2v-0.68h-2.2v-1.06H1595v-0.68h-2.07v-1.04h1.28v0.28h0.77v-1.96h0.77v-0.68h-0.77v-1.66h-2.05v-1.15h-0.8v1.15h-1.61v0.68h1.61Zm-4.63,5.05a9.179,9.179,0,0,0,.96,2.11,5.792,5.792,0,0,1-1.44,1.88,4.031,4.031,0,0,1,.58.69,7.4,7.4,0,0,0,1.39-1.88,4.018,4.018,0,0,0,3.11,1.41,29.445,29.445,0,0,0,3.44.03c0.13-.32.25-0.61,0.36-0.86a30.6,30.6,0,0,1-3.9.04,3.6,3.6,0,0,1-2.66-1.41,10.364,10.364,0,0,0,.65-3.48v-0.67h-1.4l1.47-2.82v-0.75h-2.22v0.73h1.36l-1.44,2.77v0.8h1.47a9.923,9.923,0,0,1-.41,2.62,8.157,8.157,0,0,1-.65-1.51Zm-3.22-.25h1.26v2.39a1.326,1.326,0,0,1-.41,1l0.58,0.76a5.133,5.133,0,0,1,.65-0.6c0.43-.34.83-0.67,1.21-0.97-0.07-.32-0.14-0.63-0.18-0.92-0.42.39-.77,0.69-1.06,0.92v-2.58h1.43v-0.77h-1.43v-1.3h1.08v-0.78h-2.38c0.21-.4.41-0.82,0.59-1.26h1.97v-0.78h-1.67c0.18-.5.34-1.03,0.48-1.58l-0.82-.2a12.911,12.911,0,0,1-1.46,3.75c0.16,0.21.35,0.44,0.55,0.71,0.09-.15.17-0.3,0.26-0.45v0.59h0.61v1.3h-1.26v0.77Zm8.65-3.14h1.28v1h-1.28v-1Zm1.28-.68h-1.28v-0.98h1.28v0.98Z" transform="translate(-1557 -1021)"/>
  <path id="形状_945" data-name="形状 945" class="cls-3" d="M1578.78,1049.68h-3.56v-4.52c0-2.6,1.09-3.9,3.69-5.7l0.2-.14c1.84-1.27,2.33-1.88,2.33-3.19a4.441,4.441,0,1,0-8.88,0H1569a8,8,0,1,1,16,0h0c0,2.85-1.16,4.3-3.89,6.18l-0.2.14c-1.71,1.18-2.13,1.69-2.13,2.71v4.52ZM1577,1056a2.26,2.26,0,0,1,0-4.52h0A2.26,2.26,0,0,1,1577,1056Z" transform="translate(-1557 -1021)"/>
</svg>
