<svg id="图层_1" data-name="图层 1" xmlns="http://www.w3.org/2000/svg" xmlns:xlink="http://www.w3.org/1999/xlink" viewBox="0 0 40 40"><defs><style>.cls-1{fill:none;}.cls-2{clip-path:url(#clip-path);}.cls-3{fill:#bd50d3;}.cls-4{fill:#ca6ee0;}.cls-5{fill:#bf5cd6;}.cls-6{fill:#d786ea;}</style><clipPath id="clip-path"><rect class="cls-1" x="2.97" y="3.65" width="33.03" height="33.35"/></clipPath></defs><g class="cls-2"><path class="cls-3" d="M29.58,3.69H9.37A6.41,6.41,0,0,0,3,10.09V30.55A6.41,6.41,0,0,0,9.37,37H29.58a6.41,6.41,0,0,0,6.4-6.4V10.09a6.41,6.41,0,0,0-6.4-6.4ZM12.41,29.48a4.43,4.43,0,1,1,4.42-4.43,4.44,4.44,0,0,1-4.42,4.43Zm5.07-16.37L13.06,17.4a1.65,1.65,0,0,1-1.15.47h0a1.67,1.67,0,0,1-1.16-.5L8.13,14.68a1.65,1.65,0,0,1,2.38-2.29L12,13.88l3.23-3.13A1.64,1.64,0,0,1,18,12a1.62,1.62,0,0,1-.49,1.16ZM30.08,27H20.56a1.8,1.8,0,0,1,0-3.6h9.52a1.8,1.8,0,0,1,0,3.6Zm0-10.78H20.56a1.8,1.8,0,0,1,0-3.59h9.52a1.8,1.8,0,0,1,0,3.59Zm0,0"/></g><path class="cls-3" d="M12.37,23.59a1.51,1.51,0,1,0,1.51,1.51,1.51,1.51,0,0,0-1.51-1.51Zm0,0"/><g class="cls-2"><path class="cls-4" d="M12.37,23.59a1.51,1.51,0,0,0-1.51,1.51,1.48,1.48,0,0,0,.24.8,26.72,26.72,0,0,0,2.7-1.29,1.53,1.53,0,0,0-1.43-1Zm0,0"/><path class="cls-5" d="M34.25,5.73a6.39,6.39,0,0,0-4.67-2H9.37A6.41,6.41,0,0,0,3,10.09V30.55A6.41,6.41,0,0,0,9.37,37h2.77A26.34,26.34,0,0,0,29.2,27H20.55a1.8,1.8,0,0,1,0-3.6h9.53a1.84,1.84,0,0,1,1.22.47,26.27,26.27,0,0,0,3.45-13,25.94,25.94,0,0,0-.5-5.1ZM12.41,29.48a4.43,4.43,0,1,1,4.42-4.43,4.44,4.44,0,0,1-4.42,4.43Zm5.07-16.37L13.06,17.4a1.65,1.65,0,0,1-1.15.47h0a1.67,1.67,0,0,1-1.16-.5L8.13,14.68a1.65,1.65,0,0,1,2.38-2.29L12,13.88l3.23-3.13A1.64,1.64,0,0,1,18,12a1.62,1.62,0,0,1-.49,1.16Zm12.6,3.11H20.56a1.8,1.8,0,0,1,0-3.59h9.52a1.8,1.8,0,0,1,0,3.59Zm0,0"/><path class="cls-4" d="M20.56,12.63h4.49a26.12,26.12,0,0,0,2.38-8.94H9.37A6.41,6.41,0,0,0,3,10.09V27.78a25.32,25.32,0,0,0,5.4-.94A4.38,4.38,0,0,1,8,25.06a4.42,4.42,0,0,1,8.35-2A26.18,26.18,0,0,0,23,16.22H20.56a1.8,1.8,0,0,1,0-3.59Zm-3.08.48L13.06,17.4a1.65,1.65,0,0,1-1.15.47h0a1.67,1.67,0,0,1-1.16-.5L8.13,14.68a1.65,1.65,0,0,1,2.38-2.29L12,13.88l3.23-3.13A1.64,1.64,0,0,1,18,12a1.62,1.62,0,0,1-.49,1.16Zm0,0"/><path class="cls-6" d="M8.13,14.68a1.65,1.65,0,0,1,2.38-2.29l.39.4a26.48,26.48,0,0,0,7.32-9.1H9.37A6.41,6.41,0,0,0,3,10.09v7A26.42,26.42,0,0,0,8.15,14.7Zm0,0"/></g></svg>