<svg id="图层_1" data-name="图层 1" xmlns="http://www.w3.org/2000/svg" viewBox="0 0 40 40"><defs><style>.cls-1{fill:#f78887;}.cls-2{fill:#f55857;}.cls-3{fill:#f54341;}.cls-4{fill:#f67170;}</style></defs><path class="cls-1" d="M7.35,12.53a1.35,1.35,0,0,1-.92-.36l-2.22-2.1A1.33,1.33,0,1,1,6,8.13l2.23,2.09a1.34,1.34,0,0,1-.92,2.31Zm0,0"/><path class="cls-2" d="M32.18,12.53a1.34,1.34,0,0,1-.92-2.31l2.23-2.09a1.33,1.33,0,1,1,1.83,1.94l-2.22,2.1a1.35,1.35,0,0,1-.92.36Zm0,0"/><path class="cls-1" d="M19.77,8.65a1.33,1.33,0,0,1-1.34-1.33V3.92a1.34,1.34,0,0,1,2.67,0v3.4a1.34,1.34,0,0,1-1.33,1.33Zm0,0"/><path class="cls-3" d="M34.87,34.74H32.71V22.5a12.79,12.79,0,1,0-25.58,0V34.74H5.42a1.34,1.34,0,1,0,0,2.67H34.87a1.34,1.34,0,1,0,0-2.67Zm-9.79-9-5.21,5.54a1.36,1.36,0,0,1-1,.43,1.34,1.34,0,0,1-1-2.26L21,26.11h-5.1a1.34,1.34,0,0,1-.94-2.3l5.09-5A1.34,1.34,0,1,1,22,20.73l-2.76,2.7h4.92a1.36,1.36,0,0,1,1.23.81,1.34,1.34,0,0,1-.26,1.45Zm0,0"/><path class="cls-2" d="M19.92,9.7A12.81,12.81,0,0,0,7.13,22.5V34.65c.52.15,1,.28,1.57.39a21.42,21.42,0,0,0,24-12.66A12.8,12.8,0,0,0,19.92,9.7Zm5.16,16-5.21,5.54a1.36,1.36,0,0,1-1,.43,1.34,1.34,0,0,1-1-2.26L21,26.11h-5.1a1.34,1.34,0,0,1-.94-2.3l5.09-5A1.34,1.34,0,1,1,22,20.73l-2.76,2.7h4.92a1.36,1.36,0,0,1,1.23.81,1.34,1.34,0,0,1-.26,1.45Zm0,0"/><path class="cls-4" d="M19.92,9.7A12.81,12.81,0,0,0,7.13,22.5v5.36a24.39,24.39,0,0,0,8.68-1.76A1.34,1.34,0,0,1,15,23.81l5.09-5A1.34,1.34,0,1,1,22,20.73l-2.76,2.7h1.56A24.52,24.52,0,0,0,29,13.51a12.75,12.75,0,0,0-9.1-3.81Zm0,0"/><path class="cls-1" d="M7.49,19.48A24.39,24.39,0,0,0,22.2,9.91a13.15,13.15,0,0,0-2.28-.21A12.82,12.82,0,0,0,7.49,19.48Zm0,0"/></svg>