<svg id="图层_1" data-name="图层 1" xmlns="http://www.w3.org/2000/svg" viewBox="0 0 40 40"><defs><style>.cls-1{fill:#6c6cea;}.cls-2{fill:#757bf2;}.cls-3{fill:#8486f8;}.cls-4{fill:#8d92f8;}</style></defs><path class="cls-1" d="M27.35,31.75H12.65a1.59,1.59,0,1,0,0,3.17h14.7a1.59,1.59,0,1,0,0-3.17ZM30.64,5.08H9.36A4.31,4.31,0,0,0,5.05,9.39v16.1A4.31,4.31,0,0,0,9.36,29.8H30.64A4.31,4.31,0,0,0,35,25.49V9.39a4.31,4.31,0,0,0-4.31-4.31Zm-.47,16.39H24.94a1.49,1.49,0,0,1-1-.42l-5-4.8-2.33,4.3a1.49,1.49,0,0,1-1.31.78H10.2a1.49,1.49,0,0,1,0-3h4.16l2.83-5.24a1.47,1.47,0,0,1,1.08-.76,1.52,1.52,0,0,1,1.27.39l6,5.75h4.63a1.49,1.49,0,0,1,0,3Zm0,0"/><path class="cls-2" d="M35,9.39a4.31,4.31,0,0,0-4.31-4.31H9.36A4.31,4.31,0,0,0,5.05,9.39v16.1A4.31,4.31,0,0,0,9.36,29.8H24.29A23.89,23.89,0,0,0,35,13.1ZM30.17,21.47H24.94a1.49,1.49,0,0,1-1-.42l-5-4.8-2.33,4.3a1.49,1.49,0,0,1-1.31.78H10.2a1.49,1.49,0,0,1,0-3h4.16l2.83-5.24a1.47,1.47,0,0,1,1.08-.76,1.52,1.52,0,0,1,1.27.39l6,5.75h4.63a1.49,1.49,0,0,1,0,3ZM12.65,31.75a1.59,1.59,0,0,0-1.59,1.58c0,.1,0,.2,0,.3h.23a23.8,23.8,0,0,0,9.3-1.88Zm0,0"/><path class="cls-3" d="M21.28,18.54l-2.39-2.29-2.33,4.3a1.49,1.49,0,0,1-1.31.78H10.2a1.49,1.49,0,0,1,0-3h4.16l2.83-5.24a1.47,1.47,0,0,1,1.08-.76,1.52,1.52,0,0,1,1.27.39l3.76,3.61A23.71,23.71,0,0,0,28.35,5.08h-19A4.31,4.31,0,0,0,5.05,9.39V25.15a23.81,23.81,0,0,0,16.23-6.61Zm0,0"/><path class="cls-4" d="M19.28,5.08H9.36A4.31,4.31,0,0,0,5.05,9.39v6.49A24,24,0,0,0,19.28,5.08Zm0,0"/></svg>